<svg width="42" height="48" viewBox="0 0 42 48" fill="none" xmlns="http://www.w3.org/2000/svg">
<path d="M28.8675 31.6592C33.8688 23.8112 33.2401 24.7903 33.3842 24.5857C35.2051 22.0174 36.1675 18.9946 36.1675 15.844C36.1675 7.48864 29.3873 0.605713 21.021 0.605713C12.682 0.605713 5.87454 7.47506 5.87454 15.844C5.87454 18.9926 6.85714 22.0945 8.73769 24.6974L13.1744 31.6593C8.43081 32.3883 0.36673 34.5606 0.36673 39.344C0.36673 41.0877 1.50483 43.5726 6.92672 45.509C10.7126 46.8611 15.718 47.6057 21.021 47.6057C30.9374 47.6057 41.6753 44.8085 41.6753 39.344C41.6753 34.5598 33.6207 32.3897 28.8675 31.6592ZM11.038 23.1827C11.0229 23.159 11.0071 23.1359 10.9906 23.1131C9.4257 20.9603 8.62845 18.4089 8.62845 15.844C8.62845 8.95758 14.1735 3.35962 21.021 3.35962C27.8543 3.35962 33.4136 8.96006 33.4136 15.844C33.4136 18.413 32.6314 20.8779 31.1512 22.9739C31.0185 23.1489 31.7106 22.0738 21.021 38.8473L11.038 23.1827ZM21.021 44.8518C10.1895 44.8518 3.12064 41.668 3.12064 39.344C3.12064 37.782 6.75285 35.2136 14.8016 34.2125L19.8598 42.1495C20.1126 42.5462 20.5505 42.7864 21.0209 42.7864C21.4914 42.7864 21.9294 42.5461 22.1821 42.1495L27.2402 34.2125C35.2891 35.2136 38.9214 37.782 38.9214 39.344C38.9214 41.6483 31.9161 44.8518 21.021 44.8518Z" fill="white"/>
</svg>
